<svg xmlns="http://www.w3.org/2000/svg" xmlns:xlink="http://www.w3.org/1999/xlink" width="69.724" height="76.011" viewBox="0 0 69.724 76.011">
  <defs>
    <clipPath id="clip-path">
      <path id="svg_6" d="M12.5,17.673c-1.707,1.465-.989.735-.989.735-.833,1.023-4.215,2.763-9.96,3.856A15.5,15.5,0,1,1,31,15.5a14.2,14.2,0,0,1-3.824,9.8,17.3,17.3,0,0,1-6.258,4.2c-.133.067-3.855-1.395-4.6-1.21" transform="translate(21.505 -2.205) rotate(20)" fill="#268bb4"/>
    </clipPath>
  </defs>
  <g id="Groupe_558" data-name="Groupe 558" transform="translate(-60.276 -422.594)">
    <g id="Groupe_557" data-name="Groupe 557" transform="translate(-34.724)">
      <g id="svg" transform="translate(95 424.992)">
        <path id="svg_1" d="M42.139,15.449c23.241,0,25.178,5.81,25.178,5.81s3.874,7.747,3.874,15.494c0,13.976-3.874,32.925-29.052,32.925S13.087,50.73,13.087,36.754c0-7.747,3.874-15.494,3.874-15.494s1.937-5.81,25.178-5.81Z" transform="translate(-1.466 3.918)" fill="#795548"/>
        <path id="svg_4" d="M35.334,20.629c1.7,6.25,1.056,16.308.9,17.915.409,2.115.618,11.739.523,14.843a46.009,46.009,0,0,0,1.9-5.46,63.273,63.273,0,0,0,1.1-24.62l-4.422-2.679Z" transform="translate(19.374 8.771)" fill="#3e2723"/>
        <g id="svg_7" transform="translate(20.838 46.486)">
          <g id="svg_8">
            <path id="svg_9" d="M37.68,56.562a16.432,16.432,0,0,1-8.975-2.479A21.264,21.264,0,0,1,21.8,47.492a24.635,24.635,0,0,1-3.486-18.041c.974,2.936,1.832,5.744,2.884,8.419a41.082,41.082,0,0,0,3.833,7.486A33.077,33.077,0,0,0,37.68,56.562Z" transform="translate(-17.846 -29.451)" fill="#5d4037"/>
          </g>
          <g id="svg_10" transform="translate(18.63 5.888)">
            <path id="svg_11" d="M29.638,32.491a20.6,20.6,0,0,1,1.437,5.346,31.735,31.735,0,0,1,.283,5.345,29.566,29.566,0,0,1-.633,5.334,14.234,14.234,0,0,1-2.055,5.2,41.631,41.631,0,0,1-.988-5.367,37.724,37.724,0,0,1-.2-5.287,35.983,35.983,0,0,1,.552-5.284,22.279,22.279,0,0,1,1.6-5.285Z" transform="translate(-27.465 -32.491)" fill="#5d4037"/>
          </g>
        </g>
        <g id="svg_12" transform="translate(1.937 9.684)">
          <rect id="svg_13" width="4" height="13" transform="translate(11.788 0.324)" fill="#fffde7"/>
          <path id="svg_14" d="M12.17,11.792,9.431,14.531l9.705,9.746,2.741-2.739Z" transform="translate(-6.828 -9.191)" fill="#fffde7"/>
          <path id="svg_15" d="M22.688,18.818c.686.589,1.292,1.1,1.776,1.5h10.98V16.449H8.087v3.874H21.644a5.143,5.143,0,0,1,1.044-1.5Z" transform="translate(-8.087 -4.829)" fill="#fffde7"/>
          <path id="svg_16" d="M21.429,23.181c.283.242.548.469.8.684l9.111-9.333L28.6,11.792,9.431,30.964,12.17,33.7l7.555-7.557a10.031,10.031,0,0,1,1.7-2.965Z" transform="translate(-6.828 -9.191)" fill="#fffde7"/>
        </g>
        <path id="svg_17" d="M9.992,24.944a12.589,12.589,0,1,1,25.178,0,12.475,12.475,0,0,1-1.6,6.093q1.351.357,2.95.666a15.5,15.5,0,1,0-17.691,8.258c.095-.984.234-1.952.413-2.892A12.6,12.6,0,0,1,9.992,24.944Z" transform="translate(-7.087 -1.702)" fill="#1c3540"/>
        <path id="svg_2" d="M40.265,14.449c-13.906,0-25.178,3.9-25.178,8.715S26.359,31.88,40.265,31.88s25.178-3.9,25.178-8.715-11.272-8.715-25.178-8.715h0Z" transform="translate(0.407 2.982)" fill="#4e342e"/>
        <path id="svg_3" d="M59.527,21.291c-1.28-1.571-8.528-4.842-21.19-4.842s-19.912,3.271-21.19,4.842c1.278,1.571,8.526,4.842,21.19,4.842,2.417,0,4.635-.122,6.655-.323L49.428,29.1c1.861,3.345,3.155,8.1,3.837,13.395,0-.012.006-.023.01-.035.141-1.484.7-10.133-.548-16.375-.118-.511-.223-1.017-.354-1.54l-.19.025C56.342,23.509,58.829,22.147,59.527,21.291Z" transform="translate(2.336 4.855)" fill="#fafafa"/>
        <g id="Groupe_de_masques_1" data-name="Groupe de masques 1" transform="translate(4.988 -3.208) rotate(8)" clip-path="url(#clip-path)">
          <g id="Layer_2" data-name="Layer 2" transform="translate(12.007 -2.204)">
            <g id="Layer_1" data-name="Layer 1">
              <path id="SVGID" d="M18.883,0A18.883,18.883,0,1,1,0,18.883,18.885,18.885,0,0,1,18.883,0Z" fill="#006ae3" fill-rule="evenodd"/>
              <path id="SVGID-2" data-name="SVGID" d="M0,15.711V0H1.711V15.711Z" transform="matrix(0.998, 0.07, -0.07, 0.998, 18.655, 11.093)" fill="#fff"/>
              <path id="SVGID-3" data-name="SVGID" d="M13.978,9.913,8.7,11.314,7.517,5.831l1.571-.355.619,2.6a4.281,4.281,0,0,0-.476-4.766,3.751,3.751,0,0,0-2.912-1.5A4.029,4.029,0,0,0,1.875,5.03c-.325,1.934.042,3.365,2.534,5.238l-.14,2.085s-2.783-1.96-3.5-3.335A5.99,5.99,0,0,1,.979,2.791C1.9,1.295,3.729-.14,6.943.011a5.784,5.784,0,0,1,4.951,6.658,10.368,10.368,0,0,1-.555,2.017L13.506,8.2Z" transform="matrix(0.998, 0.07, -0.07, 0.998, 13.283, 5.982)" fill="#fff"/>
              <path id="SVGID-4" data-name="SVGID" d="M12.806,9.649C11.84,11.118,9.978,12.5,6.771,12.27A5.783,5.783,0,0,1,2,5.484a10.31,10.31,0,0,1,.608-2L.427,3.909,0,2.19,5.321.929,6.356,6.443l-1.582.313L4.222,4.139A4.285,4.285,0,0,0,4.57,8.916a3.744,3.744,0,0,0,2.874,1.571,4.032,4.032,0,0,0,4.528-3.1c.374-1.922.045-3.365-2.394-5.306L9.774,0s2.73,2.032,3.41,3.425a6.018,6.018,0,0,1-.378,6.224Z" transform="matrix(0.998, 0.07, -0.07, 0.998, 11.436, 18.543)" fill="#fff"/>
            </g>
          </g>
        </g>
        <path id="svg_6-2" data-name="svg_6" d="M23.625,25.375c1.706,1.464,2.944,2.473,2.944,2.473.833,1.023,4.212,2.762,9.955,3.854A15.495,15.495,0,1,0,7.087,24.944a15.672,15.672,0,0,0,10.15,14.529,12.807,12.807,0,0,0,1.595.489" transform="translate(-7.087 -1.702)" fill="#708b96"/>
        <path id="text2161" d="M14.914,14.426v.3h4.275l.825-2.1h.839l-1.608,4.433H13.808l-.827-1.069L14.8,12.1a15.119,15.119,0,0,0,.845-4.865A7.394,7.394,0,0,0,14.33,2.473a4.738,4.738,0,0,0-3.9-1.607,4.77,4.77,0,0,0-3.911,1.6A7.386,7.386,0,0,0,5.21,7.236a15.058,15.058,0,0,0,.839,4.854l2.093,4.335-.3.633H1.595L0,12.625H.839l.811,2.1H5.938v-.3A16.837,16.837,0,0,1,2.68,10.608a7.062,7.062,0,0,1-.99-3.544A6.214,6.214,0,0,1,4.206,2.011,9.656,9.656,0,0,1,10.433,0a9.61,9.61,0,0,1,6.22,2.017,6.224,6.224,0,0,1,2.509,5.048,7.018,7.018,0,0,1-.983,3.521,17.238,17.238,0,0,1-3.265,3.84Z" transform="matrix(0.966, -0.259, 0.259, 0.966, 2.727, 14.125)" fill="#fff"/>
        <path id="svg_5" d="M33.562,36.141,45.981,12.854,56.257,9.121,55.031,5.449,44.023,9.424a1.931,1.931,0,0,0-1.1.926l-13.9,26.059c1.606-.041,3.122-.132,4.534-.267Z" transform="translate(13.467 -5.449)" fill="#ff1744"/>
        <path id="Tracé_8393" data-name="Tracé 8393" d="M29.115,30.5c11.436,2.815,17.469.863,15.46,1.747-.346.152,1,.659,0,.914-2.866.735-11.223.937-11.223.937Z" transform="translate(-2.379 -0.526)" fill="#4e342e" stroke="#4e342e" stroke-width="1"/>
      </g>
    </g>
  </g>
</svg>
